<svg xmlns="http://www.w3.org/2000/svg" width="62" height="62" fill="none" viewBox="0 0 62 62"><rect width="61.191" height="61.231" fill="#1a1a1a" rx="8"/><path fill="#fff" d="M11.477 28.921a3 3 0 0 0-.311.034 1.7 1.7 0 0 0-.316.072.32.32 0 0 0-.206.174.7.7 0 0 0-.053.268v3.655q0 .286-.118.612a1.8 1.8 0 0 1-.347.573 1.9 1.9 0 0 1-.631.463c-.246.11-.522.165-.837.165q-.732.002-1.189-.399C7.153 34.271 7 33.914 7 33.464c0-.195.053-.374.158-.526a.52.52 0 0 1 .46-.23q.27-.001.434.145.164.145.163.386a.7.7 0 0 1-.057.28q-.06.14-.132.246L7.873 34q-.085.135-.123.242a.8.8 0 0 0 .294.25q.197.11.539.11.33.001.54-.143a.85.85 0 0 0 .31-.391q.1-.228.141-.556c.026-.221.044-.467.044-.739v-3.27a.55.55 0 0 0-.053-.254q-.051-.1-.215-.182a1.3 1.3 0 0 0-.346-.107 4 4 0 0 0-.342-.046v-.31h2.815zM18.405 33.774a2.03 2.03 0 0 1-.719.832c-.302.195-.64.297-1.008.297q-.572 0-.965-.2c-.263-.13-.5-.339-.706-.619h-.026q-.349.435-.737.628a2.06 2.06 0 0 1-.916.191c-.338 0-.619-.097-.834-.288-.219-.191-.324-.455-.324-.782 0-.178.026-.33.075-.466q.076-.204.206-.357c.083-.098.18-.174.289-.238q.164-.096.333-.166.618-.24.96-.335.344-.096.654-.187v-.467c0-.042-.009-.11-.026-.212a1.2 1.2 0 0 0-.106-.314.8.8 0 0 0-.236-.276.66.66 0 0 0-.417-.119q-.225-.001-.403.068a.8.8 0 0 0-.25.14q-.001.09.043.255.042.169.044.314-.001.153-.14.28c-.096.085-.224.128-.395.128q-.223 0-.328-.153a.6.6 0 0 1-.106-.348q0-.21.145-.387.144-.179.373-.318a1.8 1.8 0 0 1 .5-.213 2 2 0 0 1 .539-.08q.447.001.816.11c.24.072.438.212.583.416q.23-.23.565-.378.337-.147.693-.148.467-.002.79.144.323.145.521.387.204.241.303.56c.061.212.096.437.096.68v.25h-2.78q-.001.994.334 1.511t1.039.518q.467 0 .736-.225c.18-.148.334-.357.465-.615zm-3.705.17v-1.495a5 5 0 0 0-.636.162 2.1 2.1 0 0 0-.517.25q-.23.152-.355.361a.93.93 0 0 0-.128.484q.002.363.18.535a.65.65 0 0 0 .47.174q.342 0 .587-.14.242-.147.399-.331m2.71-1.902q-.001-.173-.035-.442a1.4 1.4 0 0 0-.114-.433.9.9 0 0 0-.268-.33.76.76 0 0 0-.46-.133q-.448.001-.732.391c-.189.263-.281.578-.285.943h1.894zM21.742 34.602a8 8 0 0 1-.552.2q-.26.081-.64.08-.558.001-.785-.272-.23-.272-.228-.768V30.93h-.803v-.417h.82v-1.337h.82v1.337h1.272v.416h-1.263v2.4q.001.268.022.45a.8.8 0 0 0 .096.313.44.44 0 0 0 .215.191 1 1 0 0 0 .386.064q.112 0 .33-.021c.144-.013.25-.03.306-.051v.327zM26.426 34.708q-.21.076-.373.119-.159.046-.364.047-.35.001-.561-.157a.72.72 0 0 1-.268-.463h-.026q-.291.313-.627.48-.334.165-.807.165-.498 0-.82-.297-.321-.293-.32-.777-.001-.248.07-.446.07-.195.215-.352.112-.134.298-.234a2.3 2.3 0 0 1 .346-.161c.136-.051.408-.14.82-.276q.618-.199.834-.314v-.433q0-.058-.027-.217a1 1 0 0 0-.105-.305.9.9 0 0 0-.254-.28q-.164-.12-.465-.12c-.136 0-.268.022-.386.068a.8.8 0 0 0-.25.14q-.001.09.044.255c.026.115.044.217.044.314q-.002.154-.14.28c-.097.085-.224.128-.395.128q-.224 0-.33-.153a.596.596 0 0 1 .04-.73q.145-.183.382-.327.203-.12.49-.208c.194-.055.378-.085.562-.085q.375 0 .658.051.285.051.509.216a1 1 0 0 1 .346.438q.118.273.118.713c0 .416-.004.781-.013 1.104s-.013.67-.013 1.053q.001.17.061.272.058.1.189.17a.44.44 0 0 0 .215.042q.145.005.298.004zm-1.15-5.74a.88.88 0 0 1-.32.7c-.214.183-.49.272-.841.272q-.527 0-.842-.267a.88.88 0 0 1-.316-.705q.001-.428.338-.696.336-.27.824-.272.506.002.833.263c.22.178.325.412.325.705m-.42 3.443a11 11 0 0 0-.671.212 2.6 2.6 0 0 0-.535.264q-.225.147-.355.352a.87.87 0 0 0-.132.484q0 .364.197.53.2.171.496.17c.215 0 .399-.05.561-.148q.243-.152.408-.357zm-.14-3.443a.8.8 0 0 0-.154-.492q-.152-.197-.447-.196a.56.56 0 0 0-.443.187c-.105.123-.158.293-.158.501q.002.3.153.497.152.196.443.195.29 0 .443-.191c.114-.127.162-.297.162-.501M29.881 32.687q.186.158.285.361.1.203.101.501c0 .4-.153.722-.46.977q-.461.376-1.193.377-.387 0-.715-.136a2 2 0 0 1-.465-.246l-.092.285h-.337l-.044-1.495h.311q.034.17.154.4c.079.152.17.288.285.411q.178.194.42.323.244.133.553.132c.29 0 .509-.064.667-.192.158-.127.232-.31.232-.543a.64.64 0 0 0-.074-.314.7.7 0 0 0-.22-.234q-.148-.1-.364-.182a6 6 0 0 0-.482-.157 6 6 0 0 1-.47-.166 2 2 0 0 1-.442-.25 1.2 1.2 0 0 1-.325-.374 1.05 1.05 0 0 1-.127-.522q.001-.53.404-.892c.267-.242.631-.365 1.083-.365.175 0 .35.021.535.064q.271.065.443.157l.105-.225h.324l.066 1.38h-.311a1.36 1.36 0 0 0-.408-.756 1.07 1.07 0 0 0-.763-.289q-.367 0-.579.179a.55.55 0 0 0-.21.433c0 .131.022.237.07.326a.57.57 0 0 0 .21.221c.093.06.202.115.338.162.136.05.307.106.504.174q.298.09.562.212.256.109.43.263M34.914 33.778a2.2 2.2 0 0 1-.745.82 1.9 1.9 0 0 1-1.075.305q-.534 0-.938-.182a1.84 1.84 0 0 1-.662-.497 2.1 2.1 0 0 1-.39-.73 2.9 2.9 0 0 1-.127-.883q-.002-.419.136-.82c.092-.267.223-.51.403-.726q.254-.312.636-.497c.254-.127.54-.19.85-.19q.486 0 .834.148c.232.098.416.233.56.403q.207.243.308.574.1.33.1.717v.289h-2.937c0 .28.026.539.083.768q.086.345.263.607.178.254.46.4.283.145.676.144.4 0 .688-.183.29-.184.562-.654zm-.99-1.639q0-.242-.045-.522a1.6 1.6 0 0 0-.136-.463.9.9 0 0 0-.285-.326.8.8 0 0 0-.464-.128.98.98 0 0 0-.785.378c-.21.255-.32.607-.338 1.057zM40.413 34.789h-2.167V34.5c.07-.004.145-.013.228-.017a1 1 0 0 0 .207-.034.34.34 0 0 0 .188-.136.5.5 0 0 0 .061-.255v-2.207q0-.458-.223-.705a.7.7 0 0 0-.544-.246c-.158 0-.307.025-.438.072q-.199.07-.351.178a1 1 0 0 0-.237.217q-.086.115-.127.187v2.466q.001.147.061.242a.4.4 0 0 0 .189.149q.093.044.206.063c.074.013.149.026.228.03v.289h-2.17v-.289q.104-.008.214-.017a.8.8 0 0 0 .193-.034.34.34 0 0 0 .189-.136.44.44 0 0 0 .061-.254v-2.654a.57.57 0 0 0-.25-.475.7.7 0 0 0-.202-.077 2 2 0 0 0-.25-.034v-.288l1.474-.098.061.06v.607h.022q.106-.103.272-.251.163-.147.307-.238a1.67 1.67 0 0 1 .912-.242q.638 0 .947.387c.206.254.307.598.307 1.023v2.233q0 .152.053.246.052.094.184.145c.07.03.136.05.188.059q.08.019.22.026v.297zM47.951 31.91c.184.123.342.28.465.48q.184.294.184.718-.001.43-.193.747a1.6 1.6 0 0 1-.504.522 2.5 2.5 0 0 1-.68.306 3 3 0 0 1-.785.106h-3.021v-.31a4 4 0 0 0 .316-.038c.136-.017.236-.043.298-.068a.4.4 0 0 0 .197-.162.5.5 0 0 0 .057-.263v-4.44a.6.6 0 0 0-.052-.264.38.38 0 0 0-.206-.183 1.5 1.5 0 0 0-.303-.101 2 2 0 0 0-.28-.043v-.31h2.946q.343 0 .653.064.314.063.597.23.263.151.434.41.17.262.17.638.001.326-.122.581c-.083.17-.193.315-.342.438a2 2 0 0 1-.474.293q-.27.118-.578.187v.038c.184.02.386.063.614.131.227.077.43.17.609.293m-1.087-.934c.11-.123.188-.263.232-.412q.066-.221.066-.526-.002-.51-.285-.798-.29-.29-.908-.289-.143 0-.36.009l-.364.012v2.378h.57q.37.001.632-.094.251-.095.417-.28m.622 1.974q0-.548-.381-.9c-.255-.233-.614-.352-1.088-.352a15 15 0 0 0-.785.021v2.178q0 .276.228.412c.154.093.364.14.64.14q.672 0 1.027-.378c.24-.259.36-.628.36-1.12M51.52 34.789h-2.139V34.5c.07-.004.14-.013.215-.017a.8.8 0 0 0 .193-.034.34.34 0 0 0 .188-.136.5.5 0 0 0 .062-.255V31.41a.5.5 0 0 0-.066-.255.6.6 0 0 0-.184-.195 1 1 0 0 0-.246-.089 2 2 0 0 0-.298-.047v-.288l1.566-.098.06.06v3.498q.002.154.062.25c.04.068.106.115.189.149q.1.038.193.064c.061.017.131.025.21.034v.297zm-.56-6.038q-.001.249-.167.433a.544.544 0 0 1-.816.009.56.56 0 0 1-.166-.403c0-.162.057-.297.166-.416a.53.53 0 0 1 .4-.179q.255 0 .42.166t.163.39M54.19 34.789H52.03v-.29c.07-.003.14-.012.219-.02a1 1 0 0 0 .193-.034.34.34 0 0 0 .188-.136.44.44 0 0 0 .062-.255v-4.971a.6.6 0 0 0-.07-.293.6.6 0 0 0-.184-.217 1 1 0 0 0-.299-.098 2.4 2.4 0 0 0-.346-.05v-.28l1.666-.098.062.063V34q-.001.154.057.25.058.097.188.149.1.045.197.064a1.5 1.5 0 0 0 .22.03v.297z"/></svg>