<svg width="64" height="64" viewBox="0 0 64 64" fill="none" xmlns="http://www.w3.org/2000/svg">
<rect width="64" height="64" rx="8" fill="#696F8C"/>
<g clip-path="url(#clip0_1549_12571)">
<path d="M50.8281 12H46.0625C45.4148 12 44.8906 12.5241 44.8906 13.1719V14.3438H35.2998C34.8144 12.9827 33.5258 12 32 12C30.4742 12 29.1856 12.9827 28.7002 14.3438H19.1094V13.1719C19.1094 12.5241 18.5852 12 17.9375 12H13.1719C12.5241 12 12 12.5241 12 13.1719V17.8594C12 18.5071 12.5241 19.0312 13.1719 19.0312H17.9375C18.5852 19.0312 19.1094 18.5071 19.1094 17.8594V16.6719H23.9222C19.8552 19.2126 17.1736 23.675 16.853 28.673C15.447 29.1333 14.4219 30.4422 14.4219 32C14.4219 33.9386 15.9989 35.5156 17.9375 35.5156C19.8761 35.5156 21.4531 33.9386 21.4531 32C21.4531 30.5047 20.5109 29.2334 19.1922 28.726C19.592 23.1538 23.4802 18.4572 28.8885 17.1172C29.4734 18.2482 30.6412 19.0312 32 19.0312C33.3588 19.0312 34.5266 18.2482 35.1115 17.1172C40.5198 18.4571 44.408 23.1537 44.8078 28.7259C43.4891 29.2334 42.5469 30.5047 42.5469 32C42.5469 33.9386 44.1239 35.5156 46.0625 35.5156C48.0011 35.5156 49.5781 33.9386 49.5781 32C49.5781 30.4422 48.553 29.1333 47.147 28.673C46.8264 23.675 44.1448 19.2282 40.0778 16.6875H44.8906V17.8594C44.8906 18.5071 45.4148 19.0312 46.0625 19.0312H50.8281C51.4759 19.0312 52 18.5071 52 17.8594V13.1719C52 12.5241 51.4759 12 50.8281 12Z" fill="#CAD3FF"/>
<path d="M39.9722 50.5465C39.3592 48.6708 37.5933 47.2344 35.5151 47.2344H28.4839C26.4058 47.2344 24.6398 48.6708 24.0268 50.5465C23.7905 51.2697 24.4058 52 25.1667 52H38.8323C39.5932 52 40.2085 51.2697 39.9722 50.5465Z" fill="#CAD3FF"/>
<path d="M42.35 36.0387L33.1719 22.2715V33.389C34.533 33.8744 35.5156 35.163 35.5156 36.6888C35.5156 38.6273 33.9386 40.2044 32 40.2044C30.0614 40.2044 28.4844 38.6273 28.4844 36.6888C28.4844 35.163 29.467 33.8744 30.8281 33.389V22.2715L21.65 36.0387C21.3399 36.5034 21.4017 37.1225 21.7965 37.5173C23.9478 39.6687 25.323 42.4402 25.8537 45.413C26.6677 45.0828 27.5531 44.8919 28.4844 44.8919H35.5156C36.4469 44.8919 37.3323 45.0827 38.1463 45.4129C38.677 42.4398 40.0522 39.6687 42.2035 37.5173C42.5984 37.1225 42.6602 36.5034 42.35 36.0387Z" fill="#CAD3FF"/>
<path d="M32 35.5156C31.3534 35.5156 30.8281 36.0409 30.8281 36.6875C30.8281 37.3341 31.3534 37.8594 32 37.8594C32.6466 37.8594 33.1719 37.3341 33.1719 36.6875C33.1719 36.0409 32.6466 35.5156 32 35.5156Z" fill="#CAD3FF"/>
</g>
<defs>
<clipPath id="clip0_1549_12571">
<rect width="40" height="40" fill="white" transform="translate(12 12)"/>
</clipPath>
</defs>
</svg>
